<svg xmlns="http://www.w3.org/2000/svg" viewBox="0 0 21.54 21.54" width="24.000000pt" height="24.000000pt"><defs><style>.cls-1{fill:#0d090a;}.cls-2{fill:#0f090a;}.cls-3{fill:#0f0b0c;}.cls-4{fill:#0e0a0b;}.cls-5{fill:#fff0cb;}.cls-6{fill:#ee5690;}.cls-7{fill:#deeaf4;}.cls-8{fill:#fdfdfd;}.cls-9{fill:#f290bb;}.cls-10{fill:#f28fba;}.cls-11{fill:#ed4282;}.cls-12{fill:#e1eef9;}.cls-13{fill:#d3e3f2;}.cls-14{fill:#547589;}.cls-15{fill:#55768a;}.cls-16{fill:#d4e5f4;}.cls-17{fill:#547689;}.cls-18{fill:#ed5590;}.cls-19{fill:#ee8db7;}.cls-20{fill:#0d0d0e;}.cls-21{fill:#0a0c0d;}.cls-22{fill:#0a0b0c;}.cls-23{fill:#090a0a;}</style></defs><g id="Layer_2" data-name="Layer 2"><g id="Layer_1-2" data-name="Layer 1"><path class="cls-1" d="M15.78,21.54l-.48-.13L14.22,21a1.9,1.9,0,0,0-.46-.1c-1.85,0-3.7,0-5.55,0a.76.76,0,0,1-.88-.87V19H7.09C6,19,4.92,19,3.84,19a1.27,1.27,0,0,1-1.4-1.27c-.1-.94-.23-1.87-.35-2.81L1.73,12.1c-.12-.93-.23-1.86-.35-2.78s-.25-2-.38-2.95l-.15,0A1.08,1.08,0,0,1,.27,4.56a.28.28,0,0,0,.06-.23A1.4,1.4,0,0,1,1.92,2.69,2.07,2.07,0,0,1,3.1,1a2.11,2.11,0,0,1,2.09.1A1.47,1.47,0,0,1,6.3.75a1.35,1.35,0,0,1,1.07.74.19.19,0,0,0,.21.12c.18,0,.36,0,.58,0A1.46,1.46,0,0,1,9,.8a1.49,1.49,0,0,1,1.17,0,1.43,1.43,0,0,1,2.72.41,2.09,2.09,0,0,1,1.77,3.08,1.09,1.09,0,0,1-.44,2l-.73,5.73.17-.09a5.12,5.12,0,0,1,7.83,3.32c0,.15.07.3.1.45V17a.54.54,0,0,0-.05.11,5.22,5.22,0,0,1-2,3.43c-.22.17-.29.17-.51,0s-.09-.33.19-.55a4.54,4.54,0,0,0,1.34-5.56,4.35,4.35,0,0,0-3.81-2.6h-.38c-.24,0-.5,0-.74.08a4.54,4.54,0,0,0-3.09,6.6,4.33,4.33,0,0,0,4,2.42c.36,0,.72-.07,1.07-.14s.38,0,.48.19,0,.35-.33.43l-.72.16ZM9.93,17.46l.76,0h.7a5.27,5.27,0,0,1,1.24-4.66.37.37,0,0,0,.08-.18c.1-.73.2-1.47.29-2.2l.36-2.81c.05-.42.11-.84.16-1.28H11a.25.25,0,0,0,0,.07c-.09,1-.19,1.91-.28,2.86a.36.36,0,0,0,.08.2,2.37,2.37,0,0,1,.5,1.46,3.49,3.49,0,0,1-.85,2.2.57.57,0,0,0-.11.28c-.09.8-.17,1.6-.25,2.4C10,16.37,10,16.91,9.93,17.46ZM13,4.85H5.39c-.32,0-.37,0-.46-.33.06-.24.22-.3.46-.3h8.32A.32.32,0,0,0,14,4a1.4,1.4,0,0,0-.13-1.61,1.5,1.5,0,0,0-1.31-.53c-.33,0-.44-.11-.4-.44a.5.5,0,0,0,0-.21.77.77,0,0,0-1.52.13.33.33,0,0,1-.6.21.74.74,0,0,0-.8-.21A.73.73,0,0,0,8.72,2c-.05.31-.19.37-.5.31a2.57,2.57,0,0,0-.83,0c-.34,0-.42,0-.52-.34a.77.77,0,0,0-1.3-.34c-.29.29-.32.29-.66.06a1.43,1.43,0,0,0-1.64-.06,1.41,1.41,0,0,0-.69,1.45.4.4,0,0,1-.12.32.51.51,0,0,1-.35,0,4,4,0,0,0-.48-.08A.69.69,0,0,0,1,4.21H3.47a.38.38,0,0,1,.44.3,0,0,0,0,0,0,0h0s0,0,0,0a.36.36,0,0,1-.41.27H1.11a.44.44,0,1,0,0,.88H13c.35,0,.7,0,1.05,0a.43.43,0,0,0,.44-.44.44.44,0,0,0-.44-.44ZM1.65,6.36c0,.28.07.55.1.82L2.11,10c.1.83.21,1.65.31,2.48l.36,2.8c.11.84.21,1.68.33,2.52a.56.56,0,0,0,.62.54H5.2l.13,0c0-.63-.11-1.23-.16-1.84-.1-1-.19-2-.29-3a.59.59,0,0,0-.1-.26,7.67,7.67,0,0,1-.52-.79,2.63,2.63,0,0,1,.17-3,.3.3,0,0,0,0-.19l-.09-1C4.32,7.62,4.26,7,4.2,6.36Zm2.89,4.7A2.4,2.4,0,0,0,5,12.5a6.14,6.14,0,0,0,2.47,1.93.32.32,0,0,0,.21,0c.46-.28.94-.55,1.38-.87a3.89,3.89,0,0,0,1.35-1.65,1.93,1.93,0,0,0-.1-1.86,1.3,1.3,0,0,0-2-.36,2.88,2.88,0,0,0-.48.65.32.32,0,0,1-.52.1.86.86,0,0,1-.13-.23A1.37,1.37,0,0,0,5.5,9.44,1.64,1.64,0,0,0,4.54,11.06ZM7.59,9.53a2,2,0,0,1,2.5-.61l.24-2.56H4.84l.24,2.56A2,2,0,0,1,7.59,9.53ZM9.6,14l-1.81,1a.38.38,0,0,1-.4,0c-.32-.17-.65-.33-1-.51s-.57-.38-.86-.57c.07.73.13,1.44.2,2.15L6,18.29H7.32a.78.78,0,0,1,.9-.8c.34,0,.69,0,1,0ZM11,20.27V18.15H9.83v2.12ZM9.16,18.13h-1c-.05,0-.14.07-.14.12,0,.63,0,1.27,0,1.91a.13.13,0,0,0,.09.1H9.16Zm2.5,2.14H13c-.25-.3-.51-.58-.73-.88s-.4-.65-.6-1Z"/><path class="cls-2" d="M21.54,5.68a3.14,3.14,0,0,1-1.77,1.87.53.53,0,0,1-.52,0,3.69,3.69,0,0,1-1.42-1.14,1.64,1.64,0,0,1-.31-1.33,1.18,1.18,0,0,1,1.94-.73,4.53,4.53,0,0,1,.78-.27,1.17,1.17,0,0,1,1.21.81l.09.2ZM18.1,5.4a3.09,3.09,0,0,0,.18.51,2.62,2.62,0,0,0,1.17,1s.12,0,.17,0a2.53,2.53,0,0,0,1-.75,2.34,2.34,0,0,0,.31-.66.66.66,0,0,0-.39-.75c-.27-.1-.49,0-.7.34a.31.31,0,0,1-.57,0,.67.67,0,0,0-.47-.38C18.4,4.68,18.13,5,18.1,5.4Z"/><path class="cls-3" d="M15.17,8.58a.9.9,0,0,1,1.32-.83.25.25,0,0,0,.17,0,.79.79,0,0,1,1,.1.92.92,0,0,1,.28,1,2.09,2.09,0,0,1-1.29,1.24h-.14a2.12,2.12,0,0,1-1.28-1.22A3.23,3.23,0,0,1,15.17,8.58Zm2.18-.07s-.1-.17-.19-.21-.2,0-.25.11c-.24.31-.42.31-.65,0A.26.26,0,0,0,16,8.29a.3.3,0,0,0-.19.16.41.41,0,0,0,0,.29,1.33,1.33,0,0,0,.37.47c.41.33.31.32.75,0A.88.88,0,0,0,17.35,8.51Z"/><path class="cls-4" d="M18.93,1a1.23,1.23,0,0,1-.31.8,2.45,2.45,0,0,1-.91.69.44.44,0,0,1-.32,0,2.2,2.2,0,0,1-1.05-.83,1.09,1.09,0,0,1-.1-1.15A.87.87,0,0,1,17.42.1a.28.28,0,0,0,.2,0A.89.89,0,0,1,18.93,1Zm-2.21,0,0,0V1a1.22,1.22,0,0,0,.74.82.06.06,0,0,0,.06,0A1.31,1.31,0,0,0,18.29,1a.28.28,0,0,0-.18-.36c-.15-.06-.22,0-.29.16a.32.32,0,0,1-.58,0C17.18.74,17,.63,17,.66S16.8.82,16.72.92Z"/><path class="cls-5" d="M3.91,4.51a.38.38,0,0,0-.44-.3H1a.69.69,0,0,1,.63-.88,4,4,0,0,1,.48.08.51.51,0,0,0,.35,0,.4.4,0,0,0,.12-.32,1.41,1.41,0,0,1,.69-1.45,1.43,1.43,0,0,1,1.64.06c.34.23.37.23.66-.06A.77.77,0,0,1,6.87,2c.1.34.18.37.52.34a2.57,2.57,0,0,1,.83,0c.31.06.45,0,.5-.31a.73.73,0,0,1,.54-.65.74.74,0,0,1,.8.21.33.33,0,0,0,.6-.21.77.77,0,0,1,1.52-.13.5.5,0,0,1,0,.21c0,.33.07.46.4.44a1.5,1.5,0,0,1,1.31.53A1.4,1.4,0,0,1,14,4a.32.32,0,0,1-.32.17H5.39c-.24,0-.4.06-.46.3Z"/><path class="cls-6" d="M1.65,6.36H4.2c.06.64.12,1.26.18,1.89l.09,1a.3.3,0,0,1,0,.19,2.63,2.63,0,0,0-.17,3,7.67,7.67,0,0,0,.52.79.59.59,0,0,1,.1.26c.1,1,.19,2,.29,3,0,.61.11,1.21.16,1.84l-.13,0H3.73a.56.56,0,0,1-.62-.54c-.12-.84-.22-1.68-.33-2.52l-.36-2.8c-.1-.83-.21-1.65-.31-2.48L1.75,7.18C1.72,6.91,1.68,6.64,1.65,6.36Z"/><path class="cls-7" d="M16.61,11.81h.05s0,.08.07.09c.38.26.78.5,1.15.77a3,3,0,0,1,.46.54,1,1,0,0,0-.69,1.28,1,1,0,0,0,1.65.3l.18.58h-.09l-.12,0a2.22,2.22,0,0,0-.46.24,1,1,0,0,0,.46,1.67h.21l-.08.21c0,.11-.09.21-.14.32l-.19-.13a1,1,0,0,0-1.06,0,1,1,0,0,0-.38,1,1,1,0,0,0,.75.73s0,.06,0,.08a4.84,4.84,0,0,1-1.91,1.34,4.33,4.33,0,0,1-4-2.42,4.54,4.54,0,0,1,3.09-6.6c.24-.05.5-.05.74-.08Zm-.17,2.94A1.6,1.6,0,1,0,18,16.37,1.6,1.6,0,0,0,16.44,14.75Zm-2.18.39a1,1,0,0,0,0-1.93,1,1,0,0,0-1,1A1,1,0,0,0,14.26,15.14Zm-1.85,1.21a1,1,0,0,0,.95,1,1,1,0,0,0,1-1,1,1,0,0,0-1.92,0Zm4,2.11a1,1,0,0,0-1,1,1,1,0,0,0,1,1,1,1,0,0,0,1-1A1,1,0,0,0,16.41,18.46Zm0-4.23a1,1,0,0,0,1-.94,1,1,0,1,0-1,.94Zm-2.11,5.26a1,1,0,1,0-1-1A1,1,0,0,0,14.26,19.49Z"/><path class="cls-8" d="M4.54,11.06a1.64,1.64,0,0,1,1-1.62,1.37,1.37,0,0,1,1.73.74.86.86,0,0,0,.13.23.32.32,0,0,0,.52-.1,2.88,2.88,0,0,1,.48-.65,1.3,1.3,0,0,1,2,.36,1.93,1.93,0,0,1,.1,1.86A3.89,3.89,0,0,1,9.1,13.53c-.44.32-.92.59-1.38.87a.32.32,0,0,1-.21,0A6.14,6.14,0,0,1,5,12.5,2.4,2.4,0,0,1,4.54,11.06Z"/><path class="cls-9" d="M7.59,9.53a2,2,0,0,0-2.51-.61L4.84,6.36h5.49l-.24,2.56A2,2,0,0,0,7.59,9.53Z"/><path class="cls-10" d="M9.6,14,9.27,17.5c-.36,0-.71,0-1,0a.78.78,0,0,0-.9.8H6l-.21-2.14c-.07-.71-.13-1.42-.2-2.15.29.19.57.4.86.57s.64.34,1,.51a.38.38,0,0,0,.4,0Z"/><path class="cls-11" d="M12.16,6.36h1.36c0,.44-.11.86-.16,1.28L13,10.45c-.09.73-.19,1.47-.29,2.2a.37.37,0,0,1-.08.18,5.27,5.27,0,0,0-1.24,4.66h-.66l.06-.41L10.94,16l.18-1.51c.06-.49.13-1,.2-1.47s.14-1.22.22-1.84.19-1.46.28-2.18c.07-.51.14-1,.2-1.51S12.11,6.74,12.16,6.36Z"/><path class="cls-12" d="M3.91,4.51h1c.09.29.14.33.46.33H13a.81.81,0,0,1,0,.87H1.11a.44.44,0,1,1,0-.88H3.49a.36.36,0,0,0,.41-.27,0,0,0,0,0,0,0A0,0,0,0,1,3.91,4.51Z"/><path class="cls-6" d="M12.16,6.36c-.05.38-.09.76-.14,1.14s-.13,1-.2,1.51c-.09.72-.19,1.45-.28,2.18s-.15,1.23-.22,1.84-.14,1-.2,1.47L10.94,16l-.15,1.07-.06.41h0l-.76,0c0-.55.08-1.09.13-1.63.08-.8.16-1.6.25-2.4a.57.57,0,0,1,.11-.28,3.49,3.49,0,0,0,.85-2.2,2.37,2.37,0,0,0-.5-1.46.36.36,0,0,1-.08-.2c.09-.95.19-1.9.28-2.86a.25.25,0,0,1,0-.07Z"/><path class="cls-13" d="M18.34,13.21a3,3,0,0,0-.46-.54c-.37-.27-.77-.51-1.15-.77,0,0-.05-.06-.07-.09a4.35,4.35,0,0,1,3.81,2.6A4.54,4.54,0,0,1,19.13,20c-.28.22-.3.27-.19.55L18,21c-.1-.21-.26-.24-.48-.19s-.71.09-1.07.14a4.84,4.84,0,0,0,1.91-1.34s0,0,0-.08a1.07,1.07,0,0,0,.78-.21,1,1,0,0,0,.1-1.43c0-.11.1-.21.14-.32l.08-.21a.94.94,0,0,0,.69-.34.91.91,0,0,0,.17-1,1,1,0,0,0-.86-.63l-.18-.58a1,1,0,0,0,0-1.18A1,1,0,0,0,18.34,13.21Z"/><path class="cls-14" d="M11,20.27H9.83V18.15H11Z"/><path class="cls-15" d="M9.16,18.13v2.15H8.08a.13.13,0,0,1-.09-.1c0-.64,0-1.28,0-1.91,0-.05.09-.12.14-.12Z"/><path class="cls-16" d="M13,5.72a.81.81,0,0,0,0-.87h1.05a.44.44,0,0,1,.44.44.43.43,0,0,1-.44.44C13.74,5.73,13.39,5.72,13,5.72Z"/><path class="cls-17" d="M11.66,20.27V18.41c.2.33.38.67.6,1s.48.58.73.88Z"/><path class="cls-11" d="M9.93,17.46l.76,0Z"/><path class="cls-5" d="M3.91,4.54a0,0,0,0,1,0,0s0,0,0,0Z"/><path class="cls-18" d="M18.1,5.4c0-.42.3-.72.66-.69a.67.67,0,0,1,.47.38.31.31,0,0,0,.57,0c.21-.32.43-.44.7-.34a.66.66,0,0,1,.39.75,2.34,2.34,0,0,1-.31.66,2.53,2.53,0,0,1-1,.75c-.05,0-.13,0-.17,0a2.62,2.62,0,0,1-1.17-1A3.09,3.09,0,0,1,18.1,5.4Z"/><path class="cls-19" d="M17.35,8.51a.88.88,0,0,1-.38.7c-.44.32-.34.33-.75,0a1.33,1.33,0,0,1-.37-.47.41.41,0,0,1,0-.29A.3.3,0,0,1,16,8.29a.26.26,0,0,1,.22.12c.23.31.41.31.65,0,.05-.07.19-.14.25-.11S17.31,8.46,17.35,8.51Z"/><path class="cls-19" d="M16.72.92c.08-.1.15-.23.25-.26s.21.08.27.16a.32.32,0,0,0,.58,0c.07-.11.14-.22.29-.16a.28.28,0,0,1,.18.36,1.31,1.31,0,0,1-.72.79.06.06,0,0,1-.06,0A1.22,1.22,0,0,1,16.77,1V1Z"/><path class="cls-20" d="M16.44,14.75A1.6,1.6,0,0,1,18,16.37a1.59,1.59,0,1,1-1.56-1.62Zm-1,1.6a1,1,0,0,0,.95,1,1,1,0,0,0,.95-1,1,1,0,1,0-1.9,0Z"/><path class="cls-21" d="M14.26,15.14a1,1,0,0,1-1-1,1,1,0,0,1,1-1,1,1,0,0,1,0,1.93Zm.32-1a.36.36,0,0,0-.34-.34.34.34,0,0,0-.31.33.33.33,0,0,0,.32.34A.35.35,0,0,0,14.58,14.18Z"/><path class="cls-21" d="M18.34,13.21a1,1,0,0,1,1,.4,1,1,0,0,1,0,1.18,1,1,0,0,1-1.65-.3A1,1,0,0,1,18.34,13.21Zm.54,1a.34.34,0,0,0-.33-.34.34.34,0,0,0-.33.33.37.37,0,0,0,.32.34A.36.36,0,0,0,18.88,14.18Z"/><path class="cls-22" d="M19.48,15.37a1,1,0,0,1,.86.63.91.91,0,0,1-.17,1,.94.94,0,0,1-.69.34h-.21a1,1,0,0,1-.46-1.67,2.22,2.22,0,0,1,.46-.24l.12,0Zm.29,1a.33.33,0,0,0-.31-.33.33.33,0,0,0,0,.66A.33.33,0,0,0,19.77,16.34Z"/><path class="cls-21" d="M12.41,16.35a1,1,0,0,1,1.92,0,1,1,0,0,1-1,1A1,1,0,0,1,12.41,16.35Zm1.28,0a.31.31,0,0,0-.33-.32.32.32,0,0,0-.32.32.33.33,0,1,0,.65,0Z"/><path class="cls-22" d="M19.26,17.84a1,1,0,0,1-.1,1.43,1.07,1.07,0,0,1-.78.21,1,1,0,0,1-.75-.73,1,1,0,0,1,.38-1,1,1,0,0,1,1.06,0Zm-.71.34a.34.34,0,0,0-.31.35.33.33,0,0,0,.34.32.34.34,0,0,0,.31-.34A.36.36,0,0,0,18.55,18.18Z"/><path class="cls-22" d="M16.41,18.46a1,1,0,0,1,1,1,1,1,0,0,1-1,1,1,1,0,0,1-1-1A1,1,0,0,1,16.41,18.46Zm0,1.3a.34.34,0,0,0,.33-.33.33.33,0,0,0-.65,0A.34.34,0,0,0,16.41,19.76Z"/><path class="cls-23" d="M16.37,14.23a1,1,0,1,1,1-.94A1,1,0,0,1,16.37,14.23Zm.36-1a.33.33,0,0,0-.33-.33.35.35,0,0,0-.33.32.34.34,0,0,0,.32.34A.33.33,0,0,0,16.73,13.27Z"/><path class="cls-23" d="M14.26,19.49a1,1,0,1,1,1-.95A1,1,0,0,1,14.26,19.49Zm.33-.95a.34.34,0,0,0-.31-.34.34.34,0,0,0-.35.32.33.33,0,0,0,.31.33A.32.32,0,0,0,14.59,18.54Z"/></g></g></svg>