<svg xmlns="http://www.w3.org/2000/svg" viewBox="0 0 378.35 267.8"><defs><style>.cls-1{fill:#58585b;}.cls-2{fill:#fefdfd;}.cls-3{fill:#f05a2c;}.cls-4{fill:#f05b2d;}.cls-5{fill:#f05b2c;}</style></defs><g id="Layer_2" data-name="Layer 2"><g id="Layer_1-2" data-name="Layer 1"><path class="cls-1" d="M193.89.9c36.28,0,72.56-.37,108.83.17a96.69,96.69,0,0,1,43.93,11.69c20.85,11,30.77,29.42,31.13,52.12q1.1,69.06,0,138.13c-.37,20.41-8.93,37.78-27.17,49-13.46,8.3-28.39,12.17-43.89,13.41-15.85,1.28-31.78,2-47.68,2.09-54.66.24-109.34.54-164-.2-15.1-.21-30.45-2.77-45.19-6.33-29.1-7-45.52-26.16-48.67-56.2a138.44,138.44,0,0,1-1-14.07C0,152.66-.14,114.59.22,76.52a124.41,124.41,0,0,1,3.34-27c5.35-22.85,21.3-35.63,42.7-42.7A135.86,135.86,0,0,1,88.46.09c35.15-.16,70.29,0,105.43,0ZM60.9,19.16C60,22,59,23.76,59,25.53c.21,6.5.72,13,1.27,19.46.9,10.5,6.18,20.68,2.32,31.53q0,57.36,0,114.72c0,10,4.15,16.57,13.74,19.53a76.76,76.76,0,0,0,21.89,3.84q90.06.45,180.14.07a100.61,100.61,0,0,0,18.85-2.05c11.46-2.22,17.07-8,18.89-18.76a50.6,50.6,0,0,0,.33-8.27c0-32.71.11-65.42-.18-98.13-.06-7.22-1.69-14.42-2.34-21.65a49.12,49.12,0,0,1,.2-9.62c1.09-9.79,2.56-19.55,3.45-29.36.2-2.11-1.38-4.38-2.14-6.57-1.85,1.09-4,1.89-5.49,3.33Q297.2,35.67,284.71,48.05a14.61,14.61,0,0,1-10.91,4.41q-85.44,0-170.87.11a14.9,14.9,0,0,1-11.28-4.65C83.48,39.76,75.11,31.8,66.76,23.81,65.27,22.39,63.53,21.23,60.9,19.16Z"/><path class="cls-2" d="M60.9,19.16c2.63,2.07,4.37,3.23,5.86,4.65,8.35,8,16.72,16,24.89,24.11a14.9,14.9,0,0,0,11.28,4.65q85.44-.15,170.87-.11a14.61,14.61,0,0,0,10.91-4.41Q297.21,35.69,310,23.6c1.52-1.44,3.64-2.24,5.49-3.33.76,2.19,2.34,4.46,2.14,6.57-.89,9.81-2.36,19.57-3.45,29.36a49.12,49.12,0,0,0-.2,9.62c.65,7.23,2.28,14.43,2.34,21.65.29,32.71.17,65.42.18,98.13a50.6,50.6,0,0,1-.33,8.27c-1.82,10.77-7.43,16.54-18.89,18.76a100.61,100.61,0,0,1-18.85,2.05q-90.07.24-180.14-.07a76.76,76.76,0,0,1-21.89-3.84c-9.59-3-13.73-9.54-13.74-19.53q-.06-57.36,0-114.72c3.86-10.85-1.42-21-2.32-31.53-.55-6.47-1.06-13-1.27-19.46C59,23.76,60,22,60.9,19.16ZM288.58,135.38c-7.36,4.11-13.49,8.23-20.15,11.09-10,4.27-16,11.09-17.54,21.87-.08.56-.61,1.06-1.07,1.82a21.21,21.21,0,0,1-3.5-2.92c-4.66-6.17-10.83-7.18-17.89-5.58-1.57.36-3.23.36-4.84.57-10.91,1.38-22.94.07-29.37,12.24-.1.19-.56.2-1.16.39a73.88,73.88,0,0,0-5.71-6.38c-1.87-1.69-4.06-3.79-6.34-4.13-9.64-1.43-19.35-2.57-29.08-3.14-2.66-.16-5.68,1.65-8.15,3.18s-4.5,3.85-8.15,7.09c.52-16.29-10.36-21.58-21-27.06-2.32-1.18-4.54-2.53-6.82-3.79-3-1.67-6-3.32-9-5l-1.15,1c2,4.55,3.78,9.18,6,13.62,10.11,20.32,23.56,37.77,43.4,49.58,8.74,5.2,8.93,5.31,15.83-2,3-3.15,4.77-2.81,7.37.16,3.77,4.33,7.86,8.38,12,12.75l11.33-15.33c3.87,5.38,7.36,10.22,10.86,15.06a9.3,9.3,0,0,0,1.48-1c2.92-3.06,5.85-6.11,8.72-9.22,6.82-7.38,5.57-6.31,11.55,0,3.25,3.42,5.79,3.91,10.06,1.59,25-13.6,40.25-35.32,51.27-60.65C288.09,139.82,288.08,138.13,288.58,135.38Zm-112-15a17.06,17.06,0,0,0-1.43-2.26q-28.48-27.64-57-55.28c-2.87-2.78-5.5-2-7,1.22A11.91,11.91,0,0,0,110,70.89c1.78,9.89,4.34,19.65,5.87,29.57,1.26,8.12,5.4,13.34,13.21,14.85,13.5,2.59,27.1,4.66,40.69,6.68C171.76,122.28,174,121,176.6,120.39Zm44.65,1.94A141.35,141.35,0,0,0,265.37,113c2.55-1,5.69-3.58,6.28-6,3-12.27,5.29-24.71,7.75-37.11.7-3.55-.44-7-3.75-8.08C274,61.28,271,63.34,269.27,65c-14.84,14.1-29.53,28.36-44.25,42.59-3.16,3-6.37,6-9.41,9.2-2.56,2.68-1.91,4.49,1.77,5.28A26.12,26.12,0,0,0,221.25,122.33Z"/><path class="cls-3" d="M288.58,135.38c-.5,2.75-.49,4.44-1.11,5.85-11,25.33-26.26,47.05-51.27,60.65-4.27,2.32-6.81,1.83-10.06-1.59-6-6.3-4.73-7.37-11.55,0-2.87,3.11-5.8,6.16-8.72,9.22a9.3,9.3,0,0,1-1.48,1c-3.5-4.84-7-9.68-10.86-15.06L182.2,210.75c-4.15-4.37-8.24-8.42-12-12.75-2.6-3-4.42-3.31-7.37-.16-6.9,7.33-7.09,7.22-15.83,2-19.84-11.81-33.29-29.26-43.4-49.58-2.21-4.44-4-9.07-6-13.62l1.15-1c3,1.66,6,3.31,9,5,2.28,1.26,4.5,2.61,6.82,3.79,10.68,5.48,21.56,10.77,21,27.06,3.65-3.24,5.66-5.55,8.15-7.09s5.49-3.34,8.15-3.18c9.73.57,19.44,1.71,29.08,3.14,2.28.34,4.47,2.44,6.34,4.13a73.88,73.88,0,0,1,5.71,6.38c.6-.19,1.06-.2,1.16-.39,6.43-12.17,18.46-10.86,29.37-12.24,1.61-.21,3.27-.21,4.84-.57,7.06-1.6,13.23-.59,17.89,5.58a21.21,21.21,0,0,0,3.5,2.92c.46-.76,1-1.26,1.07-1.82,1.52-10.78,7.58-17.6,17.54-21.87C275.09,143.61,281.22,139.49,288.58,135.38Z"/><path class="cls-4" d="M176.6,120.39c-2.62.65-4.84,1.89-6.83,1.6-13.59-2-27.19-4.09-40.69-6.68-7.81-1.51-12-6.73-13.21-14.85-1.53-9.92-4.09-19.68-5.87-29.57a11.91,11.91,0,0,1,1.12-6.82c1.54-3.18,4.17-4,7-1.22q28.51,27.63,57,55.28A17.06,17.06,0,0,1,176.6,120.39Z"/><path class="cls-5" d="M221.25,122.33a26.12,26.12,0,0,1-3.87-.29c-3.68-.79-4.33-2.6-1.77-5.28,3-3.17,6.25-6.16,9.41-9.2C239.74,93.33,254.43,79.07,269.27,65c1.71-1.63,4.72-3.69,6.38-3.17,3.31,1,4.45,4.53,3.75,8.08-2.46,12.4-4.75,24.84-7.75,37.11-.59,2.41-3.73,5-6.28,6A141.35,141.35,0,0,1,221.25,122.33Z"/></g></g></svg>