<svg xmlns="http://www.w3.org/2000/svg" viewBox="0 0 18.97 18.82" width="24.000000pt" height="24.000000pt"><defs><style>.cls-1{fill:#e72127;}.cls-2{fill:#e72228;}</style></defs><g id="Layer_2" data-name="Layer 2"><g id="Layer_1-2" data-name="Layer 1"><path class="cls-1" d="M6.82,4C6.54,4,6.26,4,6,4s-.77.06-1.16.1a2.51,2.51,0,0,0-.75.23,1.16,1.16,0,0,0-.65.88,1,1,0,0,1,0,.17h0A5.62,5.62,0,0,1,.85,3.44l.64-.27a17.79,17.79,0,0,1,3.19-1,20.38,20.38,0,0,1,2.7-.37.27.27,0,0,1,.25.11L9.44,4.15l.05.06.06-.06c.61-.75,1.23-1.5,1.84-2.26a.18.18,0,0,1,.14-.06c.52.06,1,.09,1.54.16a18.64,18.64,0,0,1,3.21.73c.42.14.84.31,1.26.47.2.07.39.16.59.25a5.58,5.58,0,0,1-2.54,1.91L15.53,5a1.16,1.16,0,0,0-.78-.8,3.16,3.16,0,0,0-.91-.2C13.29,4,12.74,4,12.19,4h0L9.5,18.82h0Z"/><path class="cls-2" d="M.54,2.94,0,1.84a25.4,25.4,0,0,1,19,0,7.93,7.93,0,0,1-.53,1.1l-.57-.24a21.92,21.92,0,0,0-4.25-1.22,24,24,0,0,0-4.79-.33c-.7,0-1.4.06-2.1.14a21.3,21.3,0,0,0-5.6,1.4Z"/></g></g></svg>