<svg xmlns="http://www.w3.org/2000/svg" viewBox="0 0 113.08 58.95" width="24.000000pt" height="24.000000pt"><defs><style>.cls-1{fill:#fff;}</style></defs><g id="Layer_2" data-name="Layer 2"><g id="Layer_1-2" data-name="Layer 1"><path class="cls-1" d="M59.36.06H76.63V18.59H95.37V.08h17.71V56.55H95.48V37.81H76.93V56.47H59.36Z"/><path class="cls-1" d="M.08,0H17.65c0,11-.23,21.83.16,32.59.1,2.84,1.37,6.76,3.45,8.11,2.48,1.6,7,2.19,9.52.94s4.8-5.21,5-8.15c.65-8.94.25-18,.26-27V.16H54.13V21.5c0,4.32-.23,8.67,0,13C54.84,44.91,49.3,52,40.69,55.71,29.76,60.36,18.29,60.47,8,53,3.65,49.85.36,45.52.21,40.16-.17,26.89.08,13.61.08,0Z"/></g></g></svg>