<svg xmlns="http://www.w3.org/2000/svg" viewBox="0 0 17.43 17.55" width="24.000000pt" height="24.000000pt"><defs><style>.cls-1{fill:#0d397b;}.cls-2{fill:#0d387a;}.cls-3{fill:#8fc443;}.cls-4{fill:#8dc441;}</style></defs><g id="Layer_2" data-name="Layer 2"><g id="Layer_1-2" data-name="Layer 1"><path class="cls-1" d="M8,4.42l.74.22a7.8,7.8,0,0,0-1.5,1.55A3,3,0,0,0,7,8.11,7,7,0,0,0,8,9.93,2.09,2.09,0,0,1,6,9,5.79,5.79,0,0,1,6.3,2.19a14.34,14.34,0,0,1,2-2A.86.86,0,0,1,9.12.08,38.19,38.19,0,0,1,13,3,11.7,11.7,0,0,0,8,4.42Z"/><path class="cls-2" d="M4.54,14.67,9.28,13.6l0-.31-.43-.23a7.66,7.66,0,0,0,1.38-1.6,2.92,2.92,0,0,0,.24-1.86,7.69,7.69,0,0,0-1-1.81,1.83,1.83,0,0,1,1.89.82,5,5,0,0,1,.8,4.78,7.16,7.16,0,0,1-2.7,3.85,1.11,1.11,0,0,1-1.32.16A10.58,10.58,0,0,1,4.54,14.67Z"/><path class="cls-3" d="M2.87,4.66,3.94,9.41h.32l.26-.48c.87.46,1.09,1.67,2.5,1.67A3.43,3.43,0,0,0,9.78,9.37,2.09,2.09,0,0,1,9,11.44a5,5,0,0,1-4.71.84,6.76,6.76,0,0,1-4-2.87A1.15,1.15,0,0,1,0,8.53,10,10,0,0,1,2.87,4.66Z"/><path class="cls-4" d="M13.17,8.33l-.33.47C11.2,6.42,9.22,6.67,7.63,8.25a2.11,2.11,0,0,1,.82-2,5,5,0,0,1,4.45-.89,6.74,6.74,0,0,1,4.29,2.94,1,1,0,0,1,.21.81A9.69,9.69,0,0,1,14.56,13L13.49,8.35Z"/></g></g></svg>